<svg version="1.1" xmlns="http://www.w3.org/2000/svg" viewBox="0 0 586.3999996185303 439.6000000000001" width="586.3999996185303" height="439.6000000000001">
  <!-- svg-source:excalidraw -->
  
  <defs>
    <style class="style-fonts">
      @font-face {
        font-family: "Virgil";
        src: url("https://excalidraw.com/Virgil.woff2");
      }
      @font-face {
        font-family: "Cascadia";
        src: url("https://excalidraw.com/Cascadia.woff2");
      }
      @font-face {
        font-family: "Assistant";
        src: url("https://excalidraw.com/Assistant-Regular.woff2");
      }
    </style>
    
  </defs>
  <rect x="0" y="0" width="586.3999996185303" height="439.6000000000001" fill="#ffffff"></rect><g stroke-linecap="round"><g transform="translate(64 40.80000000000001) rotate(0 239.5 0)"><path d="M0 0 C118.61 0, 237.22 0, 479 0 M0 0 C191.11 0, 382.23 0, 479 0" stroke="#1e1e1e" stroke-width="2" fill="none"></path></g><g transform="translate(64 40.80000000000001) rotate(0 239.5 0)"><path d="M479 0 L465.41 6.34 L465.41 -6.34 L479 0" stroke="none" stroke-width="0" fill="#1e1e1e" fill-rule="evenodd"></path><path d="M479 0 C475.63 1.57, 472.27 3.14, 465.41 6.34 M479 0 C473.58 2.53, 468.15 5.06, 465.41 6.34 M465.41 6.34 C465.41 2.22, 465.41 -1.9, 465.41 -6.34 M465.41 6.34 C465.41 1.84, 465.41 -2.67, 465.41 -6.34 M465.41 -6.34 C469.79 -4.29, 474.18 -2.25, 479 0 M465.41 -6.34 C469.86 -4.26, 474.32 -2.18, 479 0 M479 0 C479 0, 479 0, 479 0 M479 0 C479 0, 479 0, 479 0" stroke="#1e1e1e" stroke-width="2" fill="none"></path></g></g><mask></mask><g stroke-linecap="round"><g transform="translate(62 40.80000000000001) rotate(0 0 170.5)"><path d="M0 0 C0 94.73, 0 189.47, 0 341 M0 0 C0 107.92, 0 215.83, 0 341" stroke="#1e1e1e" stroke-width="2" fill="none"></path></g><g transform="translate(62 40.80000000000001) rotate(0 0 170.5)"><path d="M0 341 L-6.34 327.41 L6.34 327.41 L0 341" stroke="none" stroke-width="0" fill="#1e1e1e" fill-rule="evenodd"></path><path d="M0 341 C-1.76 337.22, -3.52 333.45, -6.34 327.41 M0 341 C-2.01 336.7, -4.01 332.4, -6.34 327.41 M-6.34 327.41 C-1.98 327.41, 2.39 327.41, 6.34 327.41 M-6.34 327.41 C-3.55 327.41, -0.75 327.41, 6.34 327.41 M6.34 327.41 C3.97 332.5, 1.59 337.59, 0 341 M6.34 327.41 C3.83 332.79, 1.32 338.18, 0 341 M0 341 C0 341, 0 341, 0 341 M0 341 C0 341, 0 341, 0 341" stroke="#1e1e1e" stroke-width="2" fill="none"></path></g></g><mask></mask><g stroke-linecap="round"><g transform="translate(62 217.8) rotate(0 87.5 0)"><path d="M0 0 C60.07 0, 120.13 0, 175 0" stroke="#1e1e1e" stroke-width="2.5" fill="none" stroke-dasharray="8 10"></path></g><g transform="translate(62 217.8) rotate(0 87.5 0)"><path d="M175 0 L161.41 6.34 L161.41 -6.34 L175 0" stroke="none" stroke-width="0" fill="#1e1e1e" fill-rule="evenodd"></path><path d="M175 0 C170.33 2.18, 165.67 4.35, 161.41 6.34 M161.41 6.34 C161.41 3.48, 161.41 0.63, 161.41 -6.34 M161.41 -6.34 C164.31 -4.98, 167.22 -3.63, 175 0 M175 0 C175 0, 175 0, 175 0" stroke="#1e1e1e" stroke-width="2.5" fill="none"></path></g></g><mask></mask><g stroke-linecap="round"><g transform="translate(263 41.80000000000001) rotate(0 0 74.5)"><path d="M0 0 C0 46.59, 0 93.17, 0 149" stroke="#1e1e1e" stroke-width="2.5" fill="none" stroke-dasharray="8 10"></path></g><g transform="translate(263 41.80000000000001) rotate(0 0 74.5)"><path d="M0 149 L-6.34 135.41 L6.34 135.41 L0 149" stroke="none" stroke-width="0" fill="#1e1e1e" fill-rule="evenodd"></path><path d="M0 149 C-1.98 144.75, -3.96 140.5, -6.34 135.41 M-6.34 135.41 C-2.86 135.41, 0.62 135.41, 6.34 135.41 M6.34 135.41 C4.41 139.54, 2.48 143.68, 0 149 M0 149 C0 149, 0 149, 0 149" stroke="#1e1e1e" stroke-width="2.5" fill="none"></path></g></g><mask></mask><g transform="translate(99 172) rotate(0 8.199999809265137 16.80000000000001)"><text x="0" y="0" font-family="Cascadia, Segoe UI Emoji" font-size="28px" fill="#1e1e1e" text-anchor="start" style="white-space: pre;" direction="ltr" dominant-baseline="text-before-edge">x</text></g><g transform="translate(54 396.00000000000006) rotate(0 8.199999809265137 16.80000000000001)"><text x="0" y="0" font-family="Cascadia, Segoe UI Emoji" font-size="28px" fill="#1e1e1e" text-anchor="start" style="white-space: pre;" direction="ltr" dominant-baseline="text-before-edge">x</text></g><g transform="translate(560 21.000000000000057) rotate(0 8.199999809265137 16.799999999999997)"><text x="0" y="0" font-family="Cascadia, Segoe UI Emoji" font-size="28px" fill="#1e1e1e" text-anchor="start" style="white-space: pre;" direction="ltr" dominant-baseline="text-before-edge">y</text></g><g transform="translate(232 57) rotate(0 8.199999809265137 16.799999999999997)"><text x="0" y="0" font-family="Cascadia, Segoe UI Emoji" font-size="28px" fill="#1e1e1e" text-anchor="start" style="white-space: pre;" direction="ltr" dominant-baseline="text-before-edge">y</text></g><g stroke-linecap="round" transform="translate(252 206.8) rotate(0 11 11)"><path d="M0 0 L22 0 L22 22 L0 22" stroke="none" stroke-width="0" fill="#1971c2"></path><path d="M0 0 C7.81 0, 15.62 0, 22 0 M22 0 C22 8.51, 22 17.02, 22 22 M22 22 C15.41 22, 8.81 22, 0 22 M0 22 C0 17.59, 0 13.17, 0 0" stroke="transparent" stroke-width="2.5" fill="none" stroke-dasharray="8 10"></path></g><g transform="translate(10 10) rotate(0 23.45833396911621 9.600000000000001)"><text x="0" y="0" font-family="Cascadia, Segoe UI Emoji" font-size="16px" fill="#1e1e1e" text-anchor="start" style="white-space: pre;" direction="ltr" dominant-baseline="text-before-edge">(0,0)</text></g></svg>